PathFileType	4	(X/Y/Z)	C:\Motion Data\9999\Fregly Locomotion Course\Processed\9999bj_kick4.trc
DataRate	CameraRate	NumFrames	NumMarkers	Units	OrigDataRate	OrigDataStartFrame	OrigNumFrames
200.00	200.00	       4	35	mm	200.00	74	       292
Frame#	Time	R_Heel			R_Midfoot_Superior			R_Midfoot_Lateral			R_Toe			L_Heel			L_Midfoot_Superior			L_Midfoot_Lateral			L_Toe			R_Shank_Superior			R_Shank_Inferior			R_Shank_Lateral			R_Shank Posterior			L_Shank_Superior			L_Shank_Inferior			L_Shank_Lateral			L_Shank_Posterior			R_Patella			L_Patella			R_Thigh_Superior			R_Thigh_Inferior			R_Thigh_Lateral			L_Thigh_Superior			L_Thigh_Inferior			L_Thigh_Lateral			R_Asis			L_Asis			Sacral			R_Shoulder			L_Shoulder			Back			R_Elbow			L_Elbow			R_Wrist			L_Wrist			Ball			
		X1	Y1	Z1	X2	Y2	Z2	X3	Y3	Z3	X4	Y4	Z4	X5	Y5	Z5	X6	Y6	Z6	X7	Y7	Z7	X8	Y8	Z8	X9	Y9	Z9	X10	Y10	Z10	X11	Y11	Z11	X12	Y12	Z12	X13	Y13	Z13	X14	Y14	Z14	X15	Y15	Z15	X16	Y16	Z16	X17	Y17	Z17	X18	Y18	Z18	X19	Y19	Z19	X20	Y20	Z20	X21	Y21	Z21	X22	Y22	Z22	X23	Y23	Z23	X24	Y24	Z24	X25	Y25	Z25	X26	Y26	Z26	X27	Y27	Z27	X28	Y28	Z28	X29	Y29	Z29	X30	Y30	Z30	X31	Y31	Z31	X32	Y32	Z32	X33	Y33	Z33	X34	Y34	Z34	X35	Y35	Z35

74	   0.365	 -602.16663000000005	   86.83224000000000	  -86.75003000000000	 -478.81542999999999	   89.63274000000000	   37.23187000000000	 -547.18017999999995	   32.36558000000000	   40.23978000000000	 -402.42712000000000	   42.13948000000000	   88.29021000000000	 -252.71695000000000	   95.35299000000001	  -13.69885000000000	  -71.98984000000000	  134.91360000000000	    4.48254000000000	 -117.43177000000000	   66.62482000000000	  -50.89948000000000	   22.09958000000000	  105.18706000000000	   22.89580000000000	 -411.26004000000000	  385.67621000000003	   91.80070000000001	 -478.05025999999998	  244.50064000000000	   52.67347000000000	 -523.88580000000002	  349.77066000000002	   67.50922000000000	 -490.59116000000000	  421.46588000000003	  -17.41630000000000	    2.65754000000000	  402.77132999999998	    4.62729000000000	  -71.62043000000000	  260.99655000000001	    1.96766000000000	  -53.35127000000000	  354.96969999999999	  -84.13791999999999	 -164.99280999999999	  264.96310000000000	  -52.24925000000000	 -337.97982999999999	  471.09658999999999	  117.73235000000000	   67.84719000000000	  514.34551999999996	   10.96173000000000	 -289.56741000000000	  684.70923000000005	  159.41802999999999	 -312.01116999999999	  591.97826999999995	  137.00730999999999	 -392.09014999999999	  674.69263000000001	  128.63147000000001	  -15.39220000000000	  764.75031000000001	  -65.46613000000001	   22.58600000000000	  670.38031000000001	  -28.31511000000000	  -37.10566000000000	  660.63458000000003	 -129.96442999999999	 -228.99721000000000	  929.82970999999998	  127.41922000000000	  -89.64834999999999	  893.74774000000002	  -91.38818999999999	 -273.06826999999998	 1030.45874000000003	  -66.76040999999999	 -113.79101000000000	 1336.94616999999994	  241.86780999999999	   73.25381000000000	 1389.98926000000006	  -68.97883000000000	  -45.47091000000000	 1413.89111000000003	   47.09742000000000	 -252.96829000000000	 1063.01513999999997	  283.06393000000003	   -8.61933000000000	 1345.44775000000004	 -353.96237000000002	  -63.94242000000000	  929.13818000000003	  411.17111000000000	  -18.50636000000000	 1260.09960999999998	 -606.97173999999995	  488.95474000000002	  216.87414999999999	  476.07382000000001
75	   0.370	 -603.13562000000002	   94.96648000000000	  -83.16394000000000	 -478.98309000000000	   91.51464000000000	   39.33715000000000	 -548.69677999999999	   35.66851000000000	   40.04483000000000	 -402.81635000000000	   41.61640000000000	   87.38383000000000	 -226.96172999999999	   88.66401999999999	   -0.99681000000000	  -47.52662000000000	  134.28748999999999	   15.07958000000000	  -91.16673000000000	   64.55119000000001	  -39.62234000000000	   47.76294000000000	  108.57825000000000	   32.42607000000000	 -410.44171000000000	  392.65710000000001	   93.74042000000000	 -477.27938999999998	  250.59540999999999	   56.52995000000000	 -523.07512999999994	  356.68178999999998	   67.68183000000001	 -489.06607000000002	  427.52908000000002	  -17.53248000000000	   16.61674000000000	  405.91289999999998	    8.91984000000000	  -52.45684000000000	  261.53188999999998	    9.49834000000000	  -38.13448000000000	  354.55576000000002	  -78.77826000000000	 -147.03174999999999	  260.84008999999998	  -42.43289000000000	 -336.68606999999997	  476.13367000000000	  119.02336000000000	   78.01658000000000	  519.12543000000005	   12.81447000000000	 -283.25484999999998	  688.76025000000004	  158.98570000000001	 -308.44934000000001	  595.90057000000002	  137.64809000000000	 -386.58483999999999	  680.07239000000004	  130.86026000000001	   -6.56898000000000	  769.49579000000006	  -63.36483000000000	   31.95688000000000	  674.59247000000005	  -25.49110000000000	  -28.04296000000000	  664.25562000000002	 -126.33591000000000	 -219.46742000000000	  931.82830999999999	  129.19424000000001	  -81.33416000000000	  897.28033000000005	  -90.27284000000000	 -263.51794000000001	 1033.92833999999993	  -63.82891000000000	 -104.87505000000000	 1340.19116000000008	  242.35289000000000	   79.64709000000001	 1393.53149000000008	  -68.63857000000000	  -37.04634000000000	 1417.65344000000005	   47.71970000000000	 -242.37343999999999	 1066.33984000000009	  285.54662999999999	   -6.89149000000000	 1350.91942999999992	 -351.44060999999999	  -51.79774000000000	  936.52985000000001	  413.11133000000001	  -23.76097000000000	 1268.18811000000005	 -604.83330999999998	  488.78888000000001	  216.98903000000001	  476.08089999999999
76	   0.375	 -604.69304999999997	  104.49105000000000	  -80.92523000000000	 -479.80563000000001	   93.65470999999999	   41.85316000000000	 -550.45581000000004	   39.58820000000000	   40.57780000000000	 -405.08740000000000	   40.89427000000000	   86.22144000000000	 -200.45273000000000	   82.64223000000000	   12.13344000000000	  -22.59717000000000	  134.64177000000001	   24.22363000000000	  -64.81937000000001	   61.57698000000000	  -27.86390000000000	   73.80159000000000	  112.28462000000000	   40.81563000000000	 -408.53064000000001	  398.44484999999997	   97.25628000000000	 -476.63357999999999	  256.13934000000000	   59.26792000000000	 -521.62482000000000	  363.20477000000000	   68.90308000000000	 -485.75949000000003	  433.45929000000001	  -17.59791000000000	   30.23030000000000	  408.75958000000003	   12.55559000000000	  -32.38375000000000	  261.83670000000001	   16.55233000000000	  -23.55975000000000	  354.05103000000003	  -73.12706000000000	 -127.78834000000001	  256.27373999999998	  -34.28593000000000	 -334.56110000000001	  481.55124000000001	  122.01080000000000	   87.86515000000000	  523.60515999999996	   13.57285000000000	 -277.16599000000002	  692.06793000000005	  159.65764999999999	 -304.48633000000001	  600.68047999999999	  140.23965000000001	 -381.03116000000000	  685.88733000000002	  132.92526000000001	    2.34868000000000	  773.95947000000001	  -61.08737000000000	   41.31881000000000	  678.17218000000003	  -22.87668000000000	  -19.18868000000000	  668.05750000000000	 -123.64603000000000	 -209.13773000000000	  935.80071999999996	  130.49983000000000	  -72.19901000000000	  900.88025000000005	  -87.23466999999999	 -254.81281000000001	 1037.32702999999992	  -61.00557000000000	  -95.77506000000000	 1343.78979000000004	  243.61909000000000	   88.65814000000000	 1398.01891999999998	  -67.48835000000000	  -28.35005000000000	 1421.82494999999994	   49.19807000000000	 -232.02670000000001	 1070.11413999999991	  288.05133000000001	   -4.89849000000000	 1356.15002000000004	 -350.56970000000001	  -39.80595000000000	  944.03497000000004	  415.26389000000000	  -28.63511000000000	 1273.75781000000006	 -602.97833000000003	  488.85235999999998	  216.99789000000001	  476.06241000000000
77	   0.380	 -606.56890999999996	  116.23170000000000	  -79.04027000000001	 -482.13080000000002	   96.22857999999999	   42.72736000000000	 -554.66552999999999	   43.86277000000000	   39.01947000000000	 -409.74984999999998	   40.17018000000000	   84.98744000000001	 -173.83080000000001	   76.62527000000000	   24.67002000000000	    2.36296000000000	  134.81621000000001	   33.96634000000000	  -37.87565000000000	   60.53809000000000	  -17.50048000000000	   99.61274000000000	  116.23068000000001	   49.67952000000000	 -406.35577000000001	  403.74319000000003	  100.49871000000000	 -475.64325000000002	  262.10753999999997	   62.25859000000000	 -519.01238999999998	  369.51715000000002	   70.81236000000000	 -483.13234999999997	  438.33620999999999	  -15.75527000000000	   43.70195000000000	  411.89708999999999	   16.31849000000000	  -12.97991000000000	  262.79520000000002	   23.87271000000000	   -8.81630000000000	  353.44278000000003	  -67.17372000000000	 -108.31292000000001	  252.51697999999999	  -25.86503000000000	 -332.61126999999999	  486.11218000000002	  126.68095000000000	   97.21977000000000	  527.30786000000001	   15.54788000000000	 -270.32335999999998	  695.44006000000002	  160.91677999999999	 -299.04602000000000	  605.36066000000005	  142.54151999999999	 -374.97255999999999	  690.84942999999998	  134.98383999999999	   10.85290000000000	  777.47064000000000	  -58.52672000000000	   50.85634000000000	  681.17016999999998	  -20.89386000000000	  -10.84617000000000	  670.16210999999998	 -120.53962000000000	 -198.47304000000000	  939.46704000000000	  132.61852999999999	  -62.39917000000000	  905.14562999999998	  -84.90770999999999	 -245.79158000000001	 1040.67090000000007	  -58.61819000000000	  -87.29562000000000	 1347.63366999999994	  245.12157999999999	   95.41006000000000	 1401.34899999999993	  -66.87042000000000	  -19.67453000000000	 1425.15844999999990	   51.18584000000000	 -221.84967000000000	 1073.54114000000004	  289.73734000000002	   -2.93283000000000	 1360.11034999999993	 -348.35654000000000	  -27.53206000000000	  949.69293000000005	  418.52715999999998	  -31.79333000000000	 1280.22729000000004	 -600.80273000000000	  488.99081000000001	  217.08941999999999	  476.07596000000001
